<svg xmlns="http://www.w3.org/2000/svg" version="1.1" xmlns:xlink="http://www.w3.org/1999/xlink" xmlns:svgjs="http://svgjs.dev/svgjs" viewBox="0 0 13.321552566791784 12.187468859709625"><g transform="matrix(0.8514833357056486,0,0,0.8514833357056486,1.8942573858385634,9.08742938488021)"><g transform="matrix(1,0,0,1,0,0)" clip-path="url(#SvgjsClipPath6570)"><g clip-path="url(#SvgjsClipPath656847d98236-6e21-4ec0-8d8d-801800f629e7)"><path d=" M 5.597900390625 -8.54671707416784 C 6.936603249745688 -8.54671707416784 8.148555481600201 -8.00407313985441 9.025896696703434 -7.126782245440316 C 9.903237911806663 -6.24949135102622 10.445824336761081 -5.03748879848257 10.445824336761081 -3.6987859393618816 C 10.445824336761081 -2.360564721122934 9.90355421328124 -1.1489647340923783 9.026780903098267 -0.2717169716975434 C 9.00907246452347 -0.2534154510057345 8.982912604455478 -0.24601053384693294 8.95823902983049 -0.2523152282578671 C 8.933565455205503 -0.2586199226688013 8.91416464033908 -0.2776666929835887 8.907406640421303 -0.3022199798002543 C 8.900648640503523 -0.32677326661691986 8.907570556704453 -0.3530650553163017 8.925542865224543 -0.3711075214129558 C 9.777170208178777 -1.2227348643671903 10.30391280472492 -2.399239765059641 10.30391280472492 -3.6987859393618816 C 10.30391280472492 -4.998332113664123 9.777170208178777 -6.17484420302645 8.925542865224543 -7.026464357310809 C 8.073915522270305 -7.878084511595168 6.897410621577855 -8.404819919471436 5.5979075792948745 -8.404819919471436 C 4.298404537011894 -8.404819919471436 3.1218421269604297 -7.878077322925291 2.2702722933652075 -7.026464357310809 C 1.4187024597699855 -6.174851391696326 0.8918735991853225 -4.998324924994247 0.8918735991853225 -3.6987859393618816 C 0.8918735991853225 -2.3992469537295165 1.418623384401344 -1.2227348643671903 2.2702291613459495 -0.3711075214129558 C 2.29767510378851 -0.3431553793954727 2.2972647479541504 -0.2982463587308235 2.2693126059366695 -0.2708004162882638 C 2.2413604639191886 -0.2433544738457023 2.1964514432545386 -0.24376482968006208 2.169005500811978 -0.2717169716975434 C 1.2922609453085125 -1.1489503567526258 0.7499764444889179 -2.360564721122934 0.7499764444889179 -3.6987859393618816 C 0.7499764444889179 -5.03748879848257 1.292620378802348 -6.249462596346714 2.1699256505561966 -7.126782245440316 C 3.047230922310046 -8.004101894533918 4.259204720174189 -8.54671707416784 5.597900390625 -8.54671707416784" fill="#343432" transform="matrix(1,0,0,1,0,0)" fill-rule="nonzero"></path></g><g clip-path="url(#SvgjsClipPath656847d98236-6e21-4ec0-8d8d-801800f629e7)"><path d=" M 5.633232703069036 -8.495016160414533 L 5.6375602823348165 -6.863339060468476 L 5.566910034786498 -6.863339060468476 L 5.562560889511087 -8.495016160414533 L 5.633232703069036 -8.495016160414533 Z" fill="#343432" transform="matrix(1,0,0,1,0,0)" fill-rule="nonzero"></path></g><g clip-path="url(#SvgjsClipPath656847d98236-6e21-4ec0-8d8d-801800f629e7)"><path d=" M 5.609740129911944 -6.863339060468476 L 5.594708621199741 -6.863339060468476 C 5.5241584915643305 -6.86314165050398 5.467013147707426 -6.806002730359291 5.466807806753293 -6.735452623361782 L 5.466807806753293 -6.60749429955632 L 5.737655321698146 -6.60749429955632 L 5.737655321698146 -6.735452623361782 C 5.737438163515949 -6.806003422522295 5.680290976111027 -6.863137763532385 5.609740129911945 -6.863339060468476" fill="#343432" transform="matrix(1,0,0,1,0,0)" fill-rule="evenodd"></path></g><g clip-path="url(#SvgjsClipPath656847d98236-6e21-4ec0-8d8d-801800f629e7)"><path d=" M 5.767243886910689 -6.607523054235827 L 5.437089845482968 -6.607523054235827 C 4.936276781182121 -6.607523054235827 4.513101351549756 -6.258577829750383 4.398600217753499 -5.7917815513061335 L 6.8057119486305275 -5.7917815513061335 C 6.691218003504147 -6.258577829750383 6.267999441852523 -6.607523054235827 5.767222320901059 -6.607523054235827" fill="#343432" transform="matrix(1,0,0,1,0,0)" fill-rule="evenodd"></path></g><g clip-path="url(#SvgjsClipPath656847d98236-6e21-4ec0-8d8d-801800f629e7)"><path d=" M 2.989534657879561 -2.6619712717136848 L 4.882232361049005 -2.6619712717136848 L 4.882232361049005 -2.473829403700397 L 2.989534657879561 -2.473829403700397 Z" fill="#343432" transform="matrix(1,0,0,1,0,0)" fill-rule="nonzero"></path></g><g clip-path="url(#SvgjsClipPath656847d98236-6e21-4ec0-8d8d-801800f629e7)"><path d=" M 2.989534657879561 -2.6619712717136848 L 4.882232361049005 -2.6619712717136848 L 4.882232361049005 -2.473829403700397 L 2.989534657879561 -2.473829403700397 Z" fill="#343432" transform="matrix(1,0,0,1,0,0)" fill-rule="nonzero"></path></g><g clip-path="url(#SvgjsClipPath656847d98236-6e21-4ec0-8d8d-801800f629e7)"><path d=" M 4.882232361049005 -2.4669282806187542 L 2.989534657879561 -2.4669282806187542 C 2.987704366239897 -2.4669282806187542 2.9859490385806833 -2.4676553611416088 2.9846548269507283 -2.4689495727715647 C 2.983360615320773 -2.4702437844015206 2.982633534797918 -2.4719991120607334 2.9826335347979183 -2.473829403700398 L 2.9826335347979183 -2.6619712717136848 C 2.9826335347979183 -2.663801563353349 2.9833606153207732 -2.665556891012563 2.9846548269507283 -2.666851102642518 C 2.9859490385806837 -2.668145314272474 2.987704366239897 -2.6688723947953283 2.9895346578795614 -2.6688723947953283 L 4.882232361049005 -2.6688723947953283 C 4.884062652688669 -2.6688723947953283 4.885817980347882 -2.668145314272474 4.887112191977837 -2.666851102642518 C 4.888406403607794 -2.665556891012563 4.889133484130649 -2.663801563353349 4.889133484130649 -2.6619712717136848 L 4.889133484130649 -2.473829403700397 C 4.889133484130649 -2.4700180186657006 4.886043746083701 -2.4669282806187542 4.882232361049005 -2.4669282806187534 Z M 2.996435780961203 -2.4807305267820405 L 4.875331237967362 -2.4807305267820405 L 4.875331237967362 -2.655070148632044 L 2.996435780961203 -2.655070148632044 Z" fill="#343432" transform="matrix(1,0,0,1,0,0)" fill-rule="nonzero"></path></g><g clip-path="url(#SvgjsClipPath656847d98236-6e21-4ec0-8d8d-801800f629e7)"><path d=" M 3.2787923563786707 -0.4649915500028037 C 3.2676242042472983 -0.44899961371230646 3.2456066023415335 -0.44508916393971276 3.2296146659678273 -0.4562573159519374 C 3.2136227295941207 -0.4674254679641585 3.209712279657483 -0.4894430698407888 3.220880431550557 -0.505435006297704 L 3.892755084538954 -1.4649714732027315 L 3.2208804318518838 -2.4245007510064047 C 3.2100144291998745 -2.4404898246833513 3.214019078626553 -2.462243288273923 3.2298666925372763 -2.473314585578982 C 3.245714306448 -2.48438588288404 3.267517605785934 -2.4806621034602063 3.2787923563786707 -2.4649585850725346 L 3.9358367831100844 -1.5265496193666408 L 4.592924341860759 -2.4649585850725355 C 4.604096464243714 -2.4809525065436553 4.626118894021037 -2.4848613470207557 4.6421128154921565 -2.473689224637801 C 4.658106736963276 -2.4625171022548455 4.6620155774403775 -2.4404946724775236 4.650843455057423 -2.4245007510064047 L 3.978983179710106 -1.4649642845328552 L 4.650879398406804 -0.5054134407195523 C 4.658102642182508 -0.49506718767618807 4.659257534341545 -0.48165330091814695 4.653909038179581 -0.4702246618265473 C 4.648560542017616 -0.45879602273495124 4.637521221347046 -0.45108891348511904 4.624949481474453 -0.4500065275759333 C 4.61237774160186 -0.44892414166674754 4.600183528906564 -0.4546309192687268 4.592960285348894 -0.4649771724643088 L 3.9358727264594675 -1.403386138368945 Z" fill="#343432" transform="matrix(1,0,0,1,0,0)" fill-rule="nonzero"></path></g><g clip-path="url(#SvgjsClipPath656847d98236-6e21-4ec0-8d8d-801800f629e7)"><path d=" M 7.3045337513755255 -4.3483829041010225 C 6.860841857915028 -4.3483829041010225 6.435538581999156 -4.293188296787633 6.148940691354429 -4.180664047207471 C 6.021039876907982 -4.130451188118642 5.921778723250352 -4.069239664118446 5.862558460806005 -3.9969503998382363 C 5.806939721969889 -3.929074978862328 5.787350596555851 -3.850301534353326 5.814135580516478 -3.760443160894435 C 5.836003514281433 -3.6870396527833353 5.887891333451535 -3.6057214191379767 5.974852672950112 -3.5162440451825505 L 5.976621085739782 -3.5142671609664555 L 5.976621085739782 -3.5142671609664555 C 6.136037028925733 -3.323537371797551 6.2779126176125075 -3.1320959043108516 6.386375268712328 -2.9394036082656054 C 6.489992756315244 -2.755373659421796 6.563216547679426 -2.5699491086219037 6.592474434077641 -2.382569239615547 L 8.016549936654151 -2.382569239615547 C 8.04580063438249 -2.5699491086219037 8.11903161441655 -2.7553880367615493 8.222649102019465 -2.9394036082656054 C 8.33112613045904 -3.1320959043108516 8.472994530475937 -3.3235229944577975 8.632403284992012 -3.5142671609664555 C 8.63329538142699 -3.5153142819875374 8.634240742065126 -3.5163148286527726 8.635235620923437 -3.5172648363050447 C 8.721585923482492 -3.6063180787377442 8.773157441178018 -3.6873200109085262 8.794931922234579 -3.7604144062149274 C 8.821745660874708 -3.850330289032833 8.802206856149809 -3.9291181108815882 8.74663843800283 -3.9969216451587295 L 8.746588117313692 -3.996979154517744 L 8.746494664605295 -3.9969216451587295 C 8.687295968170577 -4.069174966089555 8.58802762584307 -4.130408056099381 8.460126811396623 -4.180635292527964 C 8.173528920751897 -4.293159542108127 7.748225644836025 -4.3483541494215165 7.3045337513755255 -4.3483541494215165" fill="#343432" transform="matrix(1,0,0,1,0,0)" fill-rule="evenodd"></path></g><g clip-path="url(#SvgjsClipPath656847d98236-6e21-4ec0-8d8d-801800f629e7)"><path d=" M 7.3045337513755255 -2.3116530112817903 L 6.561901021091988 -2.3116530112817903 L 6.559988834904783 -2.3116530112817903 C 6.451416893586042 -2.3068404517850416 6.342966296267369 -2.323568948481091 6.240890967747445 -2.3608738339276325 C 6.136525858477349 -2.3990384823030917 6.035295009273501 -2.4596030260143857 5.937529098950226 -2.5446378019860036 C 5.922759981940778 -2.5574158673340976 5.921145915658961 -2.5797472709161156 5.933923981007056 -2.594516387925565 C 5.946702046355151 -2.6092855049350145 5.969033449937169 -2.610899571216831 5.9838025669466175 -2.598121505868736 C 6.0749908443327 -2.518837665798487 6.168802986223783 -2.4625575693337147 6.265037709863317 -2.427383407626965 C 6.278216937970622 -2.4225574139164 6.291446486767062 -2.418131589495639 6.304726356252639 -2.41410593436468 C 6.292752446355678 -2.427444344772079 6.281978035056878 -2.441812632043285 6.27252830387485 -2.457043859538275 C 6.269494685186877 -2.4619129852681025 6.266556915430594 -2.4669234881721698 6.263714994606002 -2.4720753682504792 C 6.2627907882258524 -2.4737705967613026 6.262004679535695 -2.475537538312574 6.261364299556317 -2.477359040609863 C 6.1483655977642915 -2.736798136460374 5.887143711784356 -3.196369801678528 5.653763544236923 -3.432014400237126 C 5.583314579445152 -3.5031822320165675 5.516711553037422 -3.5527840541658753 5.459791664953622 -3.5678802609069695 C 5.412346443767327 -3.580496376540597 5.370810309219689 -3.5657236599439566 5.33920172777179 -3.513210426494579 C 5.290606319405221 -3.4324600977694812 5.262714280283582 -3.274546586587763 5.265977936407608 -3.012799927706828 L 5.265977936407608 -3.012799927706828 C 5.348410413883856 -1.9926773515123557 6.381494161866041 -1.9954737440943964 7.193260330353912 -1.9976878544164238 C 7.258576584853711 -1.997838816483834 7.274125677797037 -1.9980400992403817 7.30456969472491 -1.9980400992403817 C 7.33515029638044 -1.9980400992403817 7.350929426759821 -1.997838816483834 7.416662624112469 -1.9976878544164238 C 8.232993597972051 -1.9954737440943964 9.260700220886456 -1.9927061061918625 9.343125509692825 -3.012799927706828 L 9.343175830381963 -3.01312341785128 C 9.346389165816852 -3.274654416635914 9.318497126695213 -3.432496041118865 9.2699160956684 -3.513210426494579 C 9.23828594821087 -3.5656877165945717 9.196742624993352 -3.580496376540597 9.149340535826319 -3.5678802609069695 C 9.092406270402766 -3.5527265448068617 9.025803243995036 -3.503117533987677 8.955354279203267 -3.432014400237126 C 8.721312754027174 -3.1956868780402417 8.459256982341543 -2.734167083285498 8.346790242120393 -2.4751089869384515 C 8.346337355918159 -2.4740738184762057 8.345855715036421 -2.473074593363343 8.345352508145051 -2.4720897455902335 L 8.345445960853448 -2.4720897455902335 C 8.341549701780268 -2.465044849111057 8.337476122183467 -2.458253952300857 8.333225222063039 -2.4517170551596346 C 8.324641199530166 -2.438450063682824 8.315026638549226 -2.4258790252002447 8.304470542556192 -2.4141203117044343 C 8.317755204488355 -2.418155551728561 8.330984753284795 -2.4225813761493233 8.344159188945515 -2.427397784966719 C 8.44022138450801 -2.462528814654207 8.53401914905934 -2.5187873451093505 8.625236181124928 -2.5981358832084895 C 8.640005298134376 -2.610987397122358 8.662396243543341 -2.6094328726674867 8.67524775745721 -2.594663755658038 C 8.688099271371076 -2.5798946386485886 8.686544746916205 -2.5575036932396245 8.671775629906758 -2.544652179325757 C 8.574074417612373 -2.459682101383029 8.47276449303988 -2.3991103690018605 8.368248421702376 -2.360888211267386 C 8.266178359097424 -2.3235822510467044 8.157732241278696 -2.3068536915877456 8.049164931884789 -2.3116673886215438 L 8.047252745697584 -2.3116673886215438 Z" fill="#343432" transform="matrix(1,0,0,1,0,0)" fill-rule="evenodd"></path></g><g clip-path="url(#SvgjsClipPath656847d98236-6e21-4ec0-8d8d-801800f629e7)"><path d=" M 5.7140692958326555 -2.149052487340456 C 6.123356215263214 -1.6707687144332217 6.53389396325232 -1.6609418027117586 7.147389427870617 -1.6465069535993218 C 7.198716530790335 -1.6452992570600342 7.25140948098663 -1.644034051161733 7.304548128715279 -1.6425459964972537 C 7.357658021764423 -1.644034051161733 7.410350971960716 -1.6452992570600342 7.461649320200928 -1.6465069535993218 C 8.074620011918226 -1.6609346140418815 8.485049929859182 -1.6707399597537158 8.893905529097136 -2.1475572440061006 C 8.487206530822196 -1.924241214286063 7.91357942934014 -1.925729268950544 7.416260058599374 -1.9270663615476114 C 7.406339694169512 -1.9270663615476114 7.408417219763882 -1.9271166822367478 7.30454812871528 -1.9271166822367478 C 7.201405093324226 -1.9271166822367478 7.20356169428724 -1.9270807388873648 7.1937204052260215 -1.9270663615476114 C 6.697989730528009 -1.9257292689505432 6.122026311336023 -1.924241214286063 5.7140692958326555 -2.1490237326609494" fill="#343432" transform="matrix(1,0,0,1,0,0)" fill-rule="evenodd"></path></g><g clip-path="url(#SvgjsClipPath656847d98236-6e21-4ec0-8d8d-801800f629e7)"><path d=" M 6.634441888817882 -1.6004635230389859 L 6.555963179773824 -0.5876446354392524 C 6.555362359399259 -0.5687814291905324 6.540212815391438 -0.5536287388599659 6.521349734317459 -0.5530240013130072 L 6.461302774837289 -0.5530240013130072 C 6.4422113410790205 -0.5530910651626257 6.426752428649394 -0.5685531881659669 6.426689329380924 -0.5876446354392506 L 6.426689329380924 -1.6320002177881188 C 6.495362942963851 -1.6179850321058051 6.564702733824378 -1.6074592998391921 6.634441888817886 -1.6004635230389859 M 6.426689329380924 -1.7318580310455154 L 6.6446354227030575 -1.7318580310455154 L 6.6399555986133185 -1.6715163361004013 C 6.568284348672516 -1.678932903888307 6.49708428402986 -1.6903543859267476 6.426689329380924 -1.7057272160436705 Z" fill="#343432" transform="matrix(1,0,0,1,0,0)" fill-rule="evenodd"></path></g><g clip-path="url(#SvgjsClipPath656847d98236-6e21-4ec0-8d8d-801800f629e7)"><path d=" M 7.961743517514105 -1.5991911284708076 L 8.040100019170257 -0.5876446354392524 C 8.040690296333132 -0.5687768664979611 8.05584581867074 -0.5536181965960045 8.074713464626623 -0.5530240013130072 L 8.134760424106792 -0.5530240013130072 C 8.1538546652683 -0.5530871232881873 8.169317936257855 -0.568550394277743 8.169381058233032 -0.5876446354392524 L 8.169381058233032 -1.629383541952996 C 8.102526428379619 -1.6159910499726822 8.033479254213807 -1.6063294776583827 7.961714762834598 -1.5991911284708076 M 8.169402624242665 -1.7318580310455154 L 7.951449342250654 -1.7318580310455154 L 7.956215430378914 -1.670136111484072 C 8.027815973039964 -1.6771875239933864 8.098982436517375 -1.6881087060572435 8.169402624242668 -1.7028517480929857 Z" fill="#343432" transform="matrix(1,0,0,1,0,0)" fill-rule="evenodd"></path></g><g clip-path="url(#SvgjsClipPath656847d98236-6e21-4ec0-8d8d-801800f629e7)"><path d=" M 3.673198729164436 -3.9512448367621067 L 4.1985898557737595 -3.9512448367621067 C 4.205306804548329 -3.9514803819553013 4.211819726141247 -3.9489148849401534 4.216571563989151 -3.94416168397181 C 4.221323401837054 -3.9394084830034686 4.223887030706677 -3.9328948258410845 4.2236495589639755 -3.9261779449020144 L 4.078963200355407 -2.6870309749039007 C 4.078321802206126 -2.673462681206595 4.067464785600709 -2.6626087781706103 4.053896308495315 -2.6619712717136848 L 3.8178850877730053 -2.6619712717136848 C 3.804315147718329 -2.66260546706743 3.7934562833787546 -2.6734612173076826 3.7928181959129126 -2.6870309749039007 L 3.648117459964591 -3.9261779449020136 C 3.647886125532795 -3.9328968676180107 3.6504547375223484 -3.939410251115456 3.655209911233317 -3.9441626990174754 C 3.659965084944285 -3.9489151469194947 3.666479940198845 -3.9514800237488563 3.673198729164436 -3.951244836762105" fill="#343432" transform="matrix(1,0,0,1,0,0)" fill-rule="evenodd"></path></g><g clip-path="url(#SvgjsClipPath656847d98236-6e21-4ec0-8d8d-801800f629e7)"><path d=" M 3.9152771872626904 -3.951568326906558 C 3.905737822336294 -4.461331285203911 3.91315652964906 -4.873716521351332 4.051552802115506 -5.332396791504774 C 3.964081067055683 -4.945696672826843 3.9489848603145887 -4.3529908414919944 3.9564898316658756 -3.951568326906558 Z" fill="#343432" transform="matrix(1,0,0,1,0,0)" fill-rule="nonzero"></path></g><g clip-path="url(#SvgjsClipPath656847d98236-6e21-4ec0-8d8d-801800f629e7)"><path d=" M 3.9088073843736497 -3.951568326906558 C 3.873884826112586 -4.479935562844839 3.7988207352599668 -4.8859516374814955 3.669058055315451 -5.125478117773516 C 3.771388771010437 -4.756756862457239 3.834253689082277 -4.363378469463843 3.867601928640341 -3.951568326906558 Z" fill="#343432" transform="matrix(1,0,0,1,0,0)" fill-rule="nonzero"></path></g><g clip-path="url(#SvgjsClipPath656847d98236-6e21-4ec0-8d8d-801800f629e7)"><path d=" M 3.497723297473913 -4.794691473396645 C 3.5828443374840524 -4.683569014442441 3.678813080338148 -4.4504692050202 3.798418169746871 -3.951244836762106 L 3.845309863352659 -3.951244836762106 C 3.759498711034356 -4.44782377450557 3.635285684234661 -4.669119787990251 3.4977232974739136 -4.794691473396645" fill="#343432" transform="matrix(1,0,0,1,0,0)" fill-rule="evenodd"></path></g><g clip-path="url(#SvgjsClipPath656847d98236-6e21-4ec0-8d8d-801800f629e7)"><path d=" M 3.3093945240438303 -4.262003846862459 C 3.454828504319577 -4.391399904643263 3.6989772993423236 -4.3253791604955465 3.7644373272396567 -3.951244836762106 L 3.728048280323744 -3.951244836762106 C 3.6486062895162075 -4.205112713458166 3.526808655795087 -4.353091482870268 3.309358580694447 -4.262003846862459" fill="#343432" transform="matrix(1,0,0,1,0,0)" fill-rule="evenodd"></path></g><g clip-path="url(#SvgjsClipPath656847d98236-6e21-4ec0-8d8d-801800f629e7)"><path d=" M 3.972225830025997 -3.951568326906558 C 4.007155576956937 -4.479935562844839 4.08221247913968 -4.8859516374814955 4.2119823477540725 -5.125478117773516 C 4.109644443389211 -4.756756862457239 4.046786713987247 -4.363378469463843 4.013460040438813 -3.951568326906558 Z" fill="#343432" transform="matrix(1,0,0,1,0,0)" fill-rule="nonzero"></path></g><g clip-path="url(#SvgjsClipPath656847d98236-6e21-4ec0-8d8d-801800f629e7)"><path d=" M 4.38331710559561 -4.794691473396645 C 4.298203254255348 -4.683569014442441 4.202241700071129 -4.4504692050202 4.0826222333226525 -3.951244836762106 L 4.035744917056618 -3.951244836762106 C 4.1215416920351675 -4.44782377450557 4.2457547188348626 -4.669119787990251 4.38331710559561 -4.794691473396645" fill="#343432" transform="matrix(1,0,0,1,0,0)" fill-rule="evenodd"></path></g><g clip-path="url(#SvgjsClipPath656847d98236-6e21-4ec0-8d8d-801800f629e7)"><path d=" M 4.571667445035323 -4.262003846862459 C 4.4262334647595765 -4.391399904643263 4.18204153771757 -4.3253791604955465 4.116567132480483 -3.951244836762106 L 4.152956179396396 -3.951244836762106 C 4.232398170203933 -4.205112713458166 4.354238935944313 -4.353091482870268 4.571667445035323 -4.262003846862459" fill="#343432" transform="matrix(1,0,0,1,0,0)" fill-rule="evenodd"></path></g></g><g><path d=" M 1.2435 0.17099999999999982 L 1.2435 0.20099999999999985 Q 1.1925000000000001 0.2024999999999999 1.16625 0.21224999999999983 Q 1.1400000000000001 0.22199999999999975 1.131 0.24824999999999986 Q 1.122 0.27449999999999986 1.122 0.32999999999999985 L 1.122 1.0739999999999998 Q 1.122 1.128 1.131 1.1549999999999998 Q 1.1400000000000001 1.182 1.16625 1.1909999999999998 Q 1.1925000000000001 1.2 1.2435 1.2029999999999998 L 1.2435 1.2329999999999999 Q 1.209 1.23 1.1572500000000001 1.22925 Q 1.1055 1.2285 1.053 1.2285 Q 0.9945 1.2285 0.9435 1.22925 Q 0.8925000000000001 1.23 0.861 1.2329999999999999 L 0.861 1.2029999999999998 Q 0.912 1.2 0.93825 1.1909999999999998 Q 0.9645 1.182 0.9735 1.1549999999999998 Q 0.9825 1.128 0.9825 1.0739999999999998 L 0.9825 0.2489999999999999 L 0.9885 0.25349999999999984 L 0.621 1.2405 L 0.597 1.2405 L 0.219 0.2669999999999999 L 0.219 1.059 Q 0.219 1.113 0.22875 1.1437499999999998 Q 0.23850000000000002 1.1744999999999999 0.26775 1.18725 Q 0.297 1.2 0.3555 1.2029999999999998 L 0.3555 1.2329999999999999 Q 0.3285 1.23 0.28500000000000003 1.22925 Q 0.2415 1.2285 0.2025 1.2285 Q 0.165 1.2285 0.12675 1.22925 Q 0.0885 1.23 0.063 1.2329999999999999 L 0.063 1.2029999999999998 Q 0.114 1.2 0.14025 1.18725 Q 0.1665 1.1744999999999999 0.17550000000000002 1.1437499999999998 Q 0.1845 1.113 0.1845 1.059 L 0.1845 0.32999999999999985 Q 0.1845 0.27449999999999986 0.17550000000000002 0.24824999999999986 Q 0.1665 0.22199999999999975 0.14025 0.21224999999999983 Q 0.114 0.2024999999999999 0.063 0.20099999999999985 L 0.063 0.17099999999999982 Q 0.0885 0.17249999999999988 0.12675 0.17399999999999993 Q 0.165 0.17549999999999977 0.2025 0.17549999999999977 Q 0.23550000000000001 0.17549999999999977 0.27075 0.17399999999999993 Q 0.306 0.17249999999999988 0.33 0.17099999999999982 L 0.6705 1.0679999999999998 L 0.645 1.0799999999999998 L 0.9825 0.17549999999999977 Q 1.0005 0.17549999999999977 1.01775 0.17549999999999977 Q 1.035 0.17549999999999977 1.053 0.17549999999999977 Q 1.1055 0.17549999999999977 1.1572500000000001 0.17399999999999993 Q 1.209 0.17249999999999988 1.2435 0.17099999999999982 M 1.690449462890625 0.4394999999999999 Q 1.7864494628906251 0.4394999999999999 1.862949462890625 0.4814999999999998 Q 1.9394494628906251 0.5234999999999999 1.985199462890625 0.6134999999999998 Q 2.030949462890625 0.7034999999999999 2.030949462890625 0.8474999999999999 Q 2.030949462890625 0.9914999999999998 1.985199462890625 1.0807499999999999 Q 1.9394494628906251 1.17 1.862949462890625 1.212 Q 1.7864494628906251 1.2539999999999998 1.690449462890625 1.2539999999999998 Q 1.595949462890625 1.2539999999999998 1.518699462890625 1.212 Q 1.441449462890625 1.17 1.395699462890625 1.0807499999999999 Q 1.349949462890625 0.9914999999999998 1.349949462890625 0.8474999999999999 Q 1.349949462890625 0.7034999999999999 1.395699462890625 0.6134999999999998 Q 1.441449462890625 0.5234999999999999 1.518699462890625 0.4814999999999998 Q 1.595949462890625 0.4394999999999999 1.690449462890625 0.4394999999999999 M 1.690449462890625 0.4694999999999998 Q 1.604949462890625 0.4694999999999998 1.550199462890625 0.5579999999999998 Q 1.495449462890625 0.6464999999999999 1.495449462890625 0.8474999999999999 Q 1.495449462890625 1.0484999999999998 1.550199462890625 1.13625 Q 1.604949462890625 1.224 1.690449462890625 1.224 Q 1.775949462890625 1.224 1.830699462890625 1.13625 Q 1.8854494628906249 1.0484999999999998 1.8854494628906249 0.8474999999999999 Q 1.8854494628906249 0.6464999999999999 1.830699462890625 0.5579999999999998 Q 1.775949462890625 0.4694999999999998 1.690449462890625 0.4694999999999998 M 2.648909912109375 0.4394999999999999 Q 2.705909912109375 0.4394999999999999 2.744159912109375 0.4544999999999999 Q 2.782409912109375 0.4694999999999998 2.807909912109375 0.49649999999999983 Q 2.836409912109375 0.5264999999999999 2.848409912109375 0.5714999999999999 Q 2.860409912109375 0.6164999999999998 2.860409912109375 0.6929999999999998 L 2.860409912109375 1.0935 Q 2.860409912109375 1.1564999999999999 2.886659912109375 1.1789999999999998 Q 2.912909912109375 1.2014999999999998 2.974409912109375 1.2014999999999998 L 2.974409912109375 1.2329999999999999 Q 2.948909912109375 1.2314999999999998 2.896409912109375 1.22925 Q 2.843909912109375 1.2269999999999999 2.794409912109375 1.2269999999999999 Q 2.744909912109375 1.2269999999999999 2.697659912109375 1.22925 Q 2.650409912109375 1.2314999999999998 2.626409912109375 1.2329999999999999 L 2.626409912109375 1.2014999999999998 Q 2.6804099121093747 1.2014999999999998 2.702909912109375 1.1789999999999998 Q 2.725409912109375 1.1564999999999999 2.725409912109375 1.0935 L 2.725409912109375 0.6599999999999998 Q 2.725409912109375 0.6134999999999998 2.7179099121093753 0.5744999999999999 Q 2.710409912109375 0.5354999999999999 2.684159912109375 0.5114999999999998 Q 2.6579099121093748 0.4874999999999998 2.603909912109375 0.4874999999999998 Q 2.540909912109375 0.4874999999999998 2.4936599121093748 0.5234999999999999 Q 2.446409912109375 0.5594999999999999 2.420159912109375 0.6217499999999999 Q 2.393909912109375 0.6839999999999998 2.393909912109375 0.7604999999999998 L 2.393909912109375 1.0935 Q 2.393909912109375 1.1564999999999999 2.416409912109375 1.1789999999999998 Q 2.438909912109375 1.2014999999999998 2.492909912109375 1.2014999999999998 L 2.492909912109375 1.2329999999999999 Q 2.468909912109375 1.2314999999999998 2.421659912109375 1.22925 Q 2.374409912109375 1.2269999999999999 2.324909912109375 1.2269999999999999 Q 2.275409912109375 1.2269999999999999 2.222909912109375 1.22925 Q 2.170409912109375 1.2314999999999998 2.144909912109375 1.2329999999999999 L 2.144909912109375 1.2014999999999998 Q 2.206409912109375 1.2014999999999998 2.232659912109375 1.1789999999999998 Q 2.258909912109375 1.1564999999999999 2.258909912109375 1.0935 L 2.258909912109375 0.6239999999999999 Q 2.258909912109375 0.5564999999999999 2.234909912109375 0.5242499999999999 Q 2.210909912109375 0.4919999999999999 2.144909912109375 0.4919999999999999 L 2.144909912109375 0.4604999999999999 Q 2.192909912109375 0.46499999999999986 2.237909912109375 0.46499999999999986 Q 2.281409912109375 0.46499999999999986 2.321159912109375 0.4597499999999999 Q 2.360909912109375 0.4544999999999999 2.393909912109375 0.44399999999999984 L 2.393909912109375 0.6209999999999999 Q 2.432909912109375 0.5189999999999999 2.502659912109375 0.47924999999999984 Q 2.572409912109375 0.4394999999999999 2.648909912109375 0.4394999999999999 M 3.05988720703125 0.17099999999999982 Q 3.09138720703125 0.17249999999999988 3.14238720703125 0.17399999999999993 Q 3.19338720703125 0.17549999999999977 3.24288720703125 0.17549999999999977 Q 3.31338720703125 0.17549999999999977 3.3778872070312502 0.17399999999999993 Q 3.44238720703125 0.17249999999999988 3.46938720703125 0.17249999999999988 Q 3.65088720703125 0.17249999999999988 3.7408872070312498 0.2549999999999999 Q 3.83088720703125 0.3374999999999998 3.83088720703125 0.46799999999999986 Q 3.83088720703125 0.5219999999999999 3.81288720703125 0.5812499999999998 Q 3.79488720703125 0.6404999999999998 3.75063720703125 0.6907499999999999 Q 3.7063872070312502 0.7409999999999999 3.62988720703125 0.7724999999999999 Q 3.5533872070312498 0.8039999999999998 3.43638720703125 0.8039999999999998 L 3.29238720703125 0.8039999999999998 L 3.29238720703125 0.7739999999999998 L 3.42138720703125 0.7739999999999998 Q 3.52788720703125 0.7739999999999998 3.58413720703125 0.7334999999999998 Q 3.64038720703125 0.6929999999999998 3.6606372070312503 0.6269999999999999 Q 3.68088720703125 0.5609999999999998 3.68088720703125 0.4844999999999998 Q 3.68088720703125 0.34199999999999986 3.62463720703125 0.27149999999999985 Q 3.56838720703125 0.20099999999999985 3.43188720703125 0.20099999999999985 Q 3.36288720703125 0.20099999999999985 3.34188720703125 0.22649999999999992 Q 3.32088720703125 0.2519999999999999 3.32088720703125 0.32999999999999985 L 3.32088720703125 1.0739999999999998 Q 3.32088720703125 1.128 3.33213720703125 1.1549999999999998 Q 3.34338720703125 1.182 3.37638720703125 1.1909999999999998 Q 3.40938720703125 1.2 3.4723872070312503 1.2029999999999998 L 3.4723872070312503 1.2329999999999999 Q 3.43338720703125 1.23 3.37338720703125 1.22925 Q 3.31338720703125 1.2285 3.25188720703125 1.2285 Q 3.19338720703125 1.2285 3.14238720703125 1.22925 Q 3.09138720703125 1.23 3.05988720703125 1.2329999999999999 L 3.05988720703125 1.2029999999999998 Q 3.11088720703125 1.2 3.13713720703125 1.1909999999999998 Q 3.16338720703125 1.182 3.17238720703125 1.1549999999999998 Q 3.18138720703125 1.128 3.18138720703125 1.0739999999999998 L 3.18138720703125 0.32999999999999985 Q 3.18138720703125 0.27449999999999986 3.17238720703125 0.24824999999999986 Q 3.16338720703125 0.22199999999999975 3.13713720703125 0.21224999999999983 Q 3.11088720703125 0.2024999999999999 3.05988720703125 0.20099999999999985 L 3.05988720703125 0.17099999999999982 M 4.384420166015625 0.4394999999999999 Q 4.4249201660156245 0.4394999999999999 4.455670166015625 0.45599999999999985 Q 4.486420166015625 0.4724999999999998 4.503670166015625 0.4987499999999998 Q 4.520920166015625 0.5249999999999999 4.520920166015625 0.5579999999999998 Q 4.520920166015625 0.5954999999999998 4.497670166015625 0.6239999999999999 Q 4.474420166015625 0.6524999999999999 4.435420166015625 0.6524999999999999 Q 4.403920166015625 0.6524999999999999 4.379920166015625 0.6322499999999999 Q 4.355920166015625 0.6119999999999999 4.355920166015625 0.5744999999999999 Q 4.355920166015625 0.5459999999999998 4.371670166015625 0.5257499999999998 Q 4.387420166015625 0.5054999999999998 4.406920166015625 0.4934999999999998 Q 4.396420166015625 0.4784999999999998 4.375420166015625 0.4784999999999998 Q 4.328920166015625 0.4784999999999998 4.289920166015625 0.5062499999999999 Q 4.250920166015625 0.5339999999999998 4.223920166015625 0.5774999999999999 Q 4.196920166015625 0.6209999999999999 4.181920166015625 0.6697499999999998 Q 4.166920166015625 0.7184999999999999 4.166920166015625 0.7604999999999998 L 4.166920166015625 1.0784999999999998 Q 4.166920166015625 1.152 4.209670166015625 1.17675 Q 4.252420166015625 1.2014999999999998 4.325920166015625 1.2014999999999998 L 4.325920166015625 1.2329999999999999 Q 4.291420166015625 1.2314999999999998 4.228420166015625 1.22925 Q 4.165420166015625 1.2269999999999999 4.094920166015625 1.2269999999999999 Q 4.043920166015625 1.2269999999999999 3.993670166015625 1.22925 Q 3.943420166015625 1.2314999999999998 3.917920166015625 1.2329999999999999 L 3.917920166015625 1.2014999999999998 Q 3.979420166015625 1.2014999999999998 4.005670166015625 1.1789999999999998 Q 4.031920166015625 1.1564999999999999 4.031920166015625 1.0935 L 4.031920166015625 0.6239999999999999 Q 4.031920166015625 0.5564999999999999 4.007920166015625 0.5242499999999999 Q 3.983920166015625 0.4919999999999999 3.917920166015625 0.4919999999999999 L 3.917920166015625 0.4604999999999999 Q 3.965920166015625 0.46499999999999986 4.010920166015625 0.46499999999999986 Q 4.054420166015625 0.46499999999999986 4.094170166015625 0.4597499999999999 Q 4.133920166015625 0.4544999999999999 4.166920166015625 0.44399999999999984 L 4.166920166015625 0.6314999999999998 Q 4.183420166015625 0.5879999999999999 4.214170166015625 0.5437499999999998 Q 4.244920166015625 0.49949999999999983 4.288420166015625 0.4694999999999998 Q 4.331920166015625 0.4394999999999999 4.384420166015625 0.4394999999999999 M 4.92290185546875 0.4394999999999999 Q 5.01890185546875 0.4394999999999999 5.09540185546875 0.4814999999999998 Q 5.17190185546875 0.5234999999999999 5.21765185546875 0.6134999999999998 Q 5.26340185546875 0.7034999999999999 5.26340185546875 0.8474999999999999 Q 5.26340185546875 0.9914999999999998 5.21765185546875 1.0807499999999999 Q 5.17190185546875 1.17 5.09540185546875 1.212 Q 5.01890185546875 1.2539999999999998 4.92290185546875 1.2539999999999998 Q 4.82840185546875 1.2539999999999998 4.75115185546875 1.212 Q 4.67390185546875 1.17 4.62815185546875 1.0807499999999999 Q 4.58240185546875 0.9914999999999998 4.58240185546875 0.8474999999999999 Q 4.58240185546875 0.7034999999999999 4.62815185546875 0.6134999999999998 Q 4.67390185546875 0.5234999999999999 4.75115185546875 0.4814999999999998 Q 4.82840185546875 0.4394999999999999 4.92290185546875 0.4394999999999999 M 4.92290185546875 0.4694999999999998 Q 4.83740185546875 0.4694999999999998 4.78265185546875 0.5579999999999998 Q 4.72790185546875 0.6464999999999999 4.72790185546875 0.8474999999999999 Q 4.72790185546875 1.0484999999999998 4.78265185546875 1.13625 Q 4.83740185546875 1.224 4.92290185546875 1.224 Q 5.00840185546875 1.224 5.06315185546875 1.13625 Q 5.11790185546875 1.0484999999999998 5.11790185546875 0.8474999999999999 Q 5.11790185546875 0.6464999999999999 5.06315185546875 0.5579999999999998 Q 5.00840185546875 0.4694999999999998 4.92290185546875 0.4694999999999998 M 5.2948623046875 1.515 L 5.2948623046875 1.4925 Q 5.3878623046875 1.488 5.4343623046875 1.4122499999999998 Q 5.4808623046875 1.3364999999999998 5.4808623046875 1.2045 L 5.4808623046875 0.6239999999999999 Q 5.4808623046875 0.5564999999999999 5.4568623046875 0.5242499999999999 Q 5.4328623046875 0.4919999999999999 5.3668623046875 0.4919999999999999 L 5.3668623046875 0.4604999999999999 Q 5.4148623046875 0.46499999999999986 5.4598623046875 0.46499999999999986 Q 5.5033623046875 0.46499999999999986 5.5431123046875 0.4597499999999999 Q 5.5828623046875 0.4544999999999999 5.6158623046875 0.44399999999999984 L 5.6158623046875 1.0604999999999998 Q 5.6158623046875 1.1355 5.6053623046875 1.2029999999999998 Q 5.5948623046875 1.2705 5.5708623046875 1.3259999999999998 Q 5.5468623046875 1.3815 5.5078623046875 1.4234999999999998 Q 5.4703623046875 1.464 5.4156123046875 1.4894999999999998 Q 5.3608623046875 1.515 5.2948623046875 1.515 M 5.5348623046875 0.08549999999999991 Q 5.5738623046875 0.08549999999999991 5.6023623046875 0.11399999999999988 Q 5.6308623046875 0.14249999999999985 5.6308623046875 0.18149999999999977 Q 5.6308623046875 0.22049999999999992 5.6023623046875 0.2489999999999999 Q 5.5738623046875 0.27749999999999986 5.5348623046875 0.27749999999999986 Q 5.4958623046875 0.27749999999999986 5.4673623046875 0.2489999999999999 Q 5.4388623046875 0.22049999999999992 5.4388623046875 0.18149999999999977 Q 5.4388623046875 0.14249999999999985 5.4673623046875 0.11399999999999988 Q 5.4958623046875 0.08549999999999991 5.5348623046875 0.08549999999999991 M 6.142405517578125 0.4394999999999999 Q 6.274405517578125 0.4394999999999999 6.348655517578125 0.5197499999999998 Q 6.422905517578125 0.5999999999999999 6.422905517578125 0.7694999999999999 L 5.893405517578125 0.7694999999999999 L 5.891905517578125 0.7409999999999999 L 6.278905517578125 0.7409999999999999 Q 6.281905517578125 0.6674999999999999 6.266905517578125 0.6052499999999998 Q 6.251905517578125 0.5429999999999998 6.219655517578125 0.5054999999999998 Q 6.187405517578125 0.46799999999999986 6.136405517578125 0.46799999999999986 Q 6.067405517578125 0.46799999999999986 6.014155517578125 0.5369999999999998 Q 5.960905517578125 0.6059999999999999 5.950405517578125 0.7559999999999998 L 5.954905517578125 0.7619999999999998 Q 5.951905517578125 0.7844999999999999 5.950405517578125 0.8114999999999999 Q 5.948905517578125 0.8384999999999998 5.948905517578125 0.8654999999999999 Q 5.948905517578125 0.9674999999999998 5.981905517578125 1.041 Q 6.014905517578125 1.1144999999999998 6.068155517578125 1.15275 Q 6.1214055175781255 1.1909999999999998 6.178405517578125 1.1909999999999998 Q 6.223405517578125 1.1909999999999998 6.263905517578125 1.17675 Q 6.304405517578125 1.1624999999999999 6.338905517578125 1.1295 Q 6.373405517578125 1.0964999999999998 6.398905517578125 1.041 L 6.428905517578125 1.053 Q 6.412405517578125 1.1024999999999998 6.374905517578125 1.1489999999999998 Q 6.337405517578125 1.1954999999999998 6.280405517578125 1.2247499999999998 Q 6.223405517578125 1.2539999999999998 6.148405517578125 1.2539999999999998 Q 6.040405517578125 1.2539999999999998 5.963155517578125 1.2045 Q 5.885905517578125 1.1549999999999998 5.844655517578125 1.0672499999999998 Q 5.803405517578125 0.9794999999999998 5.803405517578125 0.8654999999999999 Q 5.803405517578125 0.7334999999999998 5.845405517578125 0.6382499999999999 Q 5.887405517578125 0.5429999999999998 5.963905517578125 0.49124999999999985 Q 6.040405517578125 0.4394999999999999 6.142405517578125 0.4394999999999999 M 6.778377685546875 0.2114999999999998 L 6.778377685546875 0.46199999999999986 L 7.000377685546875 0.46199999999999986 L 7.000377685546875 0.4919999999999999 L 6.778377685546875 0.4919999999999999 L 6.778377685546875 1.0724999999999998 Q 6.778377685546875 1.1429999999999998 6.803877685546875 1.1715 Q 6.829377685546875 1.2 6.874377685546875 1.2 Q 6.919377685546875 1.2 6.952377685546875 1.16325 Q 6.985377685546875 1.1264999999999998 7.009377685546875 1.0394999999999999 L 7.039377685546875 1.047 Q 7.024377685546875 1.134 6.980127685546875 1.194 Q 6.935877685546875 1.2539999999999998 6.844377685546875 1.2539999999999998 Q 6.793377685546875 1.2539999999999998 6.760377685546875 1.24125 Q 6.727377685546875 1.2285 6.701877685546875 1.2045 Q 6.668877685546875 1.17 6.656127685546875 1.1219999999999999 Q 6.643377685546875 1.0739999999999998 6.643377685546875 0.9944999999999998 L 6.643377685546875 0.4919999999999999 L 6.499377685546875 0.4919999999999999 L 6.499377685546875 0.46199999999999986 L 6.643377685546875 0.46199999999999986 L 6.643377685546875 0.23249999999999993 Q 6.680877685546875 0.23099999999999987 6.715377685546875 0.22649999999999992 Q 6.749877685546875 0.22199999999999975 6.778377685546875 0.2114999999999998 M 7.087383544921875 0.17099999999999982 Q 7.118883544921875 0.17249999999999988 7.169883544921875 0.17399999999999993 Q 7.220883544921875 0.17549999999999977 7.270383544921875 0.17549999999999977 Q 7.340883544921875 0.17549999999999977 7.405383544921875 0.17399999999999993 Q 7.469883544921875 0.17249999999999988 7.496883544921875 0.17249999999999988 Q 7.618383544921875 0.17249999999999988 7.698633544921875 0.20699999999999985 Q 7.778883544921875 0.24149999999999983 7.818633544921875 0.30074999999999985 Q 7.858383544921875 0.3599999999999999 7.858383544921875 0.4334999999999999 Q 7.858383544921875 0.4784999999999998 7.840383544921875 0.5294999999999999 Q 7.822383544921875 0.5804999999999999 7.778133544921875 0.6254999999999998 Q 7.733883544921875 0.6704999999999999 7.657383544921875 0.6997499999999999 Q 7.580883544921875 0.7289999999999999 7.463883544921875 0.7289999999999999 L 7.319883544921875 0.7289999999999999 L 7.319883544921875 0.6989999999999998 L 7.448883544921875 0.6989999999999998 Q 7.555383544921875 0.6989999999999998 7.611633544921875 0.6652499999999999 Q 7.6678835449218745 0.6314999999999998 7.688133544921875 0.5752499999999998 Q 7.708383544921875 0.5189999999999999 7.708383544921875 0.44999999999999984 Q 7.708383544921875 0.3314999999999999 7.652133544921875 0.2662499999999999 Q 7.595883544921875 0.20099999999999985 7.459383544921875 0.20099999999999985 Q 7.390383544921875 0.20099999999999985 7.369383544921875 0.22649999999999992 Q 7.348383544921875 0.2519999999999999 7.348383544921875 0.32999999999999985 L 7.348383544921875 1.0739999999999998 Q 7.348383544921875 1.128 7.357383544921875 1.1549999999999998 Q 7.366383544921875 1.182 7.392633544921875 1.1909999999999998 Q 7.418883544921875 1.2 7.469883544921875 1.2029999999999998 L 7.469883544921875 1.2329999999999999 Q 7.435383544921875 1.23 7.383633544921875 1.22925 Q 7.331883544921875 1.2285 7.279383544921875 1.2285 Q 7.220883544921875 1.2285 7.169883544921875 1.22925 Q 7.118883544921875 1.23 7.087383544921875 1.2329999999999999 L 7.087383544921875 1.2029999999999998 Q 7.138383544921875 1.2 7.164633544921875 1.1909999999999998 Q 7.190883544921875 1.182 7.199883544921875 1.1549999999999998 Q 7.208883544921875 1.128 7.208883544921875 1.0739999999999998 L 7.208883544921875 0.32999999999999985 Q 7.208883544921875 0.27449999999999986 7.199883544921875 0.24824999999999986 Q 7.190883544921875 0.22199999999999975 7.164633544921875 0.21224999999999983 Q 7.138383544921875 0.2024999999999999 7.087383544921875 0.20099999999999985 L 7.087383544921875 0.17099999999999982 M 7.325883544921875 0.7034999999999999 Q 7.406883544921875 0.7064999999999999 7.453383544921875 0.7102499999999998 Q 7.499883544921875 0.7139999999999999 7.529133544921875 0.7169999999999999 Q 7.558383544921875 0.7199999999999999 7.585383544921875 0.7244999999999998 Q 7.685883544921875 0.7409999999999999 7.730133544921875 0.7852499999999998 Q 7.774383544921875 0.8294999999999999 7.795383544921875 0.9224999999999999 L 7.832883544921875 1.0755 Q 7.847883544921875 1.1415 7.863633544921875 1.17075 Q 7.879383544921875 1.2 7.912383544921875 1.1985 Q 7.937883544921875 1.1969999999999998 7.955133544921875 1.182 Q 7.972383544921875 1.1669999999999998 7.991883544921875 1.1415 L 8.014383544921875 1.158 Q 7.982883544921875 1.2045 7.949133544921875 1.22925 Q 7.915383544921875 1.2539999999999998 7.853883544921875 1.2539999999999998 Q 7.798383544921875 1.2539999999999998 7.756383544921875 1.2209999999999999 Q 7.714383544921875 1.188 7.6933835449218755 1.0919999999999999 L 7.660383544921875 0.942 Q 7.6468835449218755 0.8775 7.629633544921875 0.8302499999999999 Q 7.612383544921875 0.7829999999999999 7.581633544921875 0.7559999999999998 Q 7.550883544921875 0.7289999999999999 7.490883544921875 0.7289999999999999 L 7.328883544921875 0.7289999999999999 L 7.325883544921875 0.7034999999999999 M 8.40439892578125 0.4394999999999999 Q 8.53639892578125 0.4394999999999999 8.61064892578125 0.5197499999999998 Q 8.68489892578125 0.5999999999999999 8.68489892578125 0.7694999999999999 L 8.15539892578125 0.7694999999999999 L 8.15389892578125 0.7409999999999999 L 8.54089892578125 0.7409999999999999 Q 8.54389892578125 0.6674999999999999 8.52889892578125 0.6052499999999998 Q 8.51389892578125 0.5429999999999998 8.48164892578125 0.5054999999999998 Q 8.44939892578125 0.46799999999999986 8.39839892578125 0.46799999999999986 Q 8.32939892578125 0.46799999999999986 8.27614892578125 0.5369999999999998 Q 8.22289892578125 0.6059999999999999 8.21239892578125 0.7559999999999998 L 8.21689892578125 0.7619999999999998 Q 8.21389892578125 0.7844999999999999 8.21239892578125 0.8114999999999999 Q 8.21089892578125 0.8384999999999998 8.21089892578125 0.8654999999999999 Q 8.21089892578125 0.9674999999999998 8.24389892578125 1.041 Q 8.27689892578125 1.1144999999999998 8.33014892578125 1.15275 Q 8.38339892578125 1.1909999999999998 8.44039892578125 1.1909999999999998 Q 8.48539892578125 1.1909999999999998 8.52589892578125 1.17675 Q 8.56639892578125 1.1624999999999999 8.60089892578125 1.1295 Q 8.63539892578125 1.0964999999999998 8.66089892578125 1.041 L 8.69089892578125 1.053 Q 8.67439892578125 1.1024999999999998 8.63689892578125 1.1489999999999998 Q 8.59939892578125 1.1954999999999998 8.54239892578125 1.2247499999999998 Q 8.48539892578125 1.2539999999999998 8.41039892578125 1.2539999999999998 Q 8.30239892578125 1.2539999999999998 8.22514892578125 1.2045 Q 8.14789892578125 1.1549999999999998 8.10664892578125 1.0672499999999998 Q 8.06539892578125 0.9794999999999998 8.06539892578125 0.8654999999999999 Q 8.06539892578125 0.7334999999999998 8.10739892578125 0.6382499999999999 Q 8.14939892578125 0.5429999999999998 8.22589892578125 0.49124999999999985 Q 8.30239892578125 0.4394999999999999 8.40439892578125 0.4394999999999999 M 8.56339892578125 0.013499999999999845 Q 8.58139892578125 0.028499999999999748 8.583648925781251 0.05249999999999977 Q 8.58589892578125 0.07649999999999979 8.56339892578125 0.10649999999999982 Q 8.54089892578125 0.1349999999999998 8.50789892578125 0.16349999999999976 Q 8.47489892578125 0.19199999999999995 8.43064892578125 0.2317499999999999 Q 8.38639892578125 0.27149999999999985 8.32639892578125 0.3344999999999999 L 8.30989892578125 0.32099999999999984 Q 8.35639892578125 0.24749999999999983 8.38414892578125 0.19499999999999984 Q 8.41189892578125 0.14249999999999985 8.43139892578125 0.10349999999999993 Q 8.45089892578125 0.06449999999999978 8.47339892578125 0.03599999999999981 Q 8.49589892578125 0.005999999999999783 8.52064892578125 0.0029999999999998916 Q 8.54539892578125 -2.220446049250313e-16 8.56339892578125 0.013499999999999845 M 9.30287109375 0.4394999999999999 Q 9.35987109375 0.4394999999999999 9.39812109375 0.4544999999999999 Q 9.436371093750001 0.4694999999999998 9.46187109375 0.49649999999999983 Q 9.49037109375 0.5264999999999999 9.50237109375 0.5714999999999999 Q 9.51437109375 0.6164999999999998 9.51437109375 0.6929999999999998 L 9.51437109375 1.0935 Q 9.51437109375 1.1564999999999999 9.54062109375 1.1789999999999998 Q 9.56687109375 1.2014999999999998 9.62837109375 1.2014999999999998 L 9.62837109375 1.2329999999999999 Q 9.60287109375 1.2314999999999998 9.55037109375 1.22925 Q 9.49787109375 1.2269999999999999 9.44837109375 1.2269999999999999 Q 9.39887109375 1.2269999999999999 9.35162109375 1.22925 Q 9.30437109375 1.2314999999999998 9.28037109375 1.2329999999999999 L 9.28037109375 1.2014999999999998 Q 9.33437109375 1.2014999999999998 9.35687109375 1.1789999999999998 Q 9.37937109375 1.1564999999999999 9.37937109375 1.0935 L 9.37937109375 0.6599999999999998 Q 9.37937109375 0.6134999999999998 9.37187109375 0.5744999999999999 Q 9.36437109375 0.5354999999999999 9.33812109375 0.5114999999999998 Q 9.31187109375 0.4874999999999998 9.25787109375 0.4874999999999998 Q 9.19487109375 0.4874999999999998 9.14762109375 0.5234999999999999 Q 9.10037109375 0.5594999999999999 9.07412109375 0.6217499999999999 Q 9.04787109375 0.6839999999999998 9.04787109375 0.7604999999999998 L 9.04787109375 1.0935 Q 9.04787109375 1.1564999999999999 9.07037109375 1.1789999999999998 Q 9.09287109375 1.2014999999999998 9.14687109375 1.2014999999999998 L 9.14687109375 1.2329999999999999 Q 9.12287109375 1.2314999999999998 9.07562109375 1.22925 Q 9.02837109375 1.2269999999999999 8.97887109375 1.2269999999999999 Q 8.92937109375 1.2269999999999999 8.87687109375 1.22925 Q 8.82437109375 1.2314999999999998 8.79887109375 1.2329999999999999 L 8.79887109375 1.2014999999999998 Q 8.86037109375 1.2014999999999998 8.88662109375 1.1789999999999998 Q 8.91287109375 1.1564999999999999 8.91287109375 1.0935 L 8.91287109375 0.6239999999999999 Q 8.91287109375 0.5564999999999999 8.88887109375 0.5242499999999999 Q 8.86487109375 0.4919999999999999 8.79887109375 0.4919999999999999 L 8.79887109375 0.4604999999999999 Q 8.84687109375 0.46499999999999986 8.89187109375 0.46499999999999986 Q 8.93537109375 0.46499999999999986 8.97512109375 0.4597499999999999 Q 9.01487109375 0.4544999999999999 9.04787109375 0.44399999999999984 L 9.04787109375 0.6209999999999999 Q 9.08687109375 0.5189999999999999 9.15662109375 0.47924999999999984 Q 9.22637109375 0.4394999999999999 9.30287109375 0.4394999999999999 M 10.061848388671875 0.4394999999999999 Q 10.157848388671875 0.4394999999999999 10.234348388671876 0.4814999999999998 Q 10.310848388671875 0.5234999999999999 10.356598388671875 0.6134999999999998 Q 10.402348388671875 0.7034999999999999 10.402348388671875 0.8474999999999999 Q 10.402348388671875 0.9914999999999998 10.356598388671875 1.0807499999999999 Q 10.310848388671875 1.17 10.234348388671876 1.212 Q 10.157848388671875 1.2539999999999998 10.061848388671875 1.2539999999999998 Q 9.967348388671875 1.2539999999999998 9.890098388671875 1.212 Q 9.812848388671876 1.17 9.767098388671876 1.0807499999999999 Q 9.721348388671874 0.9914999999999998 9.721348388671874 0.8474999999999999 Q 9.721348388671874 0.7034999999999999 9.767098388671876 0.6134999999999998 Q 9.812848388671876 0.5234999999999999 9.890098388671875 0.4814999999999998 Q 9.967348388671875 0.4394999999999999 10.061848388671875 0.4394999999999999 M 10.061848388671875 0.4694999999999998 Q 9.976348388671875 0.4694999999999998 9.921598388671875 0.5579999999999998 Q 9.866848388671874 0.6464999999999999 9.866848388671874 0.8474999999999999 Q 9.866848388671874 1.0484999999999998 9.921598388671875 1.13625 Q 9.976348388671875 1.224 10.061848388671875 1.224 Q 10.147348388671874 1.224 10.202098388671875 1.13625 Q 10.256848388671875 1.0484999999999998 10.256848388671875 0.8474999999999999 Q 10.256848388671875 0.6464999999999999 10.202098388671875 0.5579999999999998 Q 10.147348388671874 0.4694999999999998 10.061848388671875 0.4694999999999998 M 11.1912802734375 0.4604999999999999 L 11.1912802734375 0.4904999999999998 Q 11.1627802734375 0.4934999999999998 11.1387802734375 0.5159999999999999 Q 11.1147802734375 0.5384999999999999 11.0937802734375 0.5954999999999998 L 10.8477802734375 1.2405 Q 10.8417802734375 1.2405 10.8357802734375 1.2405 Q 10.8297802734375 1.2405 10.8222802734375 1.2405 L 10.5462802734375 0.5759999999999998 Q 10.5222802734375 0.5174999999999998 10.4990302734375 0.5047499999999998 Q 10.4757802734375 0.4919999999999999 10.4592802734375 0.4919999999999999 L 10.4592802734375 0.4604999999999999 Q 10.4892802734375 0.46199999999999986 10.5215302734375 0.46424999999999983 Q 10.5537802734375 0.4664999999999998 10.5912802734375 0.4664999999999998 Q 10.6377802734375 0.4664999999999998 10.6895302734375 0.46499999999999986 Q 10.7412802734375 0.4634999999999999 10.7862802734375 0.4604999999999999 L 10.7862802734375 0.4919999999999999 Q 10.7487802734375 0.4919999999999999 10.719530273437499 0.49724999999999986 Q 10.6902802734375 0.5024999999999998 10.6820302734375 0.5264999999999999 Q 10.6737802734375 0.5504999999999999 10.6962802734375 0.6089999999999999 L 10.8837802734375 1.0724999999999998 L 10.8747802734375 1.0799999999999998 L 11.0457802734375 0.6314999999999998 Q 11.0652802734375 0.5819999999999999 11.0615302734375 0.5527499999999999 Q 11.0577802734375 0.5234999999999999 11.0315302734375 0.5084999999999998 Q 11.0052802734375 0.4934999999999998 10.9512802734375 0.4904999999999998 L 10.9512802734375 0.4604999999999999 Q 10.9782802734375 0.46199999999999986 10.9977802734375 0.4627499999999999 Q 11.0172802734375 0.4634999999999999 11.0360302734375 0.46424999999999983 Q 11.0547802734375 0.46499999999999986 11.0772802734375 0.46499999999999986 Q 11.1117802734375 0.46499999999999986 11.1395302734375 0.4634999999999999 Q 11.1672802734375 0.46199999999999986 11.1912802734375 0.4604999999999999" fill="#343432" fill-rule="nonzero"></path></g><g></g></g><defs><clipPath id="SvgjsClipPath6570"><path d=" M 0.7499764444889179 -8.54671707416784 h 9.695847892272164 v 8.29671707416784 h -9.695847892272164 Z"></path></clipPath><clipPath id="SvgjsClipPath656847d98236-6e21-4ec0-8d8d-801800f629e7"><path d=" M 0.7499764444889179 -8.54671707416784 L 10.445824336761081 -8.54671707416784 L 10.445824336761081 -0.25 L 0.7499764444889179 -0.25 Z"></path></clipPath></defs></svg>